<svg height="512pt" viewBox="0 0 512.0016 512" width="512pt" xmlns="http://www.w3.org/2000/svg"><path d="m140.878906 162.097656 21.214844-21.214844 104.511719 104.511719-21.214844 21.214844zm0 0" fill="#e1e1e3"/><path d="m245.390625 266.609375 21.214844-21.214844 245.390625 245.394531-21.214844 21.210938zm0 0" fill="#c2c4c6"/><path d="m76.800781 13.160156c-17.546875-17.546875-46.09375-17.546875-63.640625 0-17.542968 17.542969-17.542968 46.09375 0 63.640625l159.519532 159.519531 63.640624-63.640624zm0 0" fill="#c782ff"/><path d="m371.121094 162.09375-17.675782-17.675781-342.835937 342.832031v14.144531l10.605469 10.605469zm0 0" fill="#a4a6aa"/><path d="m0 490.785156 349.902344-349.902344 10.605468 10.605469-349.902343 349.902344zm0 0" fill="#c2c4c6"/><path d="m498.84375 76.800781c17.542969-17.546875 17.542969-46.09375 0-63.640625h-42.425781l-155.984375 155.984375 7.070312 35.355469 31.820313 31.820312zm0 0" fill="#9571c9"/><path d="m435.203125 13.160156-159.519531 159.519532 31.820312 31.820312 191.339844-191.339844c-17.546875-17.546875-46.09375-17.546875-63.640625 0zm0 0" fill="#c782ff"/></svg>