<svg id="Capa_1" enable-background="new 0 0 512 512" height="512" viewBox="0 0 512 512" width="512" xmlns="http://www.w3.org/2000/svg"><g><g><g><g><path d="m256 143.542c13.143 0 25.755 2.262 37.479 6.406h.011c0-10.883-3.433-21.429-9.518-30.452-22.157-32.2-4.031-59.995-27.972-95.063v9.947c-.671 10.058-3.518 19.911-9.323 28.315-14.979 21.514-20.677 41.744-20.677 70.794l9.874 11.853c6.53-1.181 13.256-1.8 20.126-1.8z" fill="#faef93"/></g><g><path d="m199.771 158.609c11.382-6.571 23.435-10.918 35.66-13.192l.009-.005c-5.441-9.425-13.688-16.841-23.468-21.613-35.289-16.807-33.488-49.941-71.756-68.341l4.973 8.614c4.448 9.045 6.909 19.002 6.084 29.183-2.215 26.121 2.965 46.49 17.49 71.647l14.477 5.328c5.066-4.287 10.581-8.186 16.531-11.621z" fill="#faef93"/></g><g><path d="m158.609 199.771c6.571-11.382 14.836-21.173 24.287-29.255l.006-.009c-9.425-5.441-20.274-7.741-31.131-6.983-38.964 3.089-53.972-26.506-96.313-23.307l8.614 4.973c8.375 5.61 15.485 13.002 19.86 22.231 11.142 23.729 25.813 38.779 50.97 53.304l15.201-2.625c2.244-6.245 5.071-12.379 8.506-18.329z" fill="#faef93"/></g><g><path d="m143.542 256c0-13.143 2.262-25.755 6.406-37.479v-.011c-10.883 0-21.429 3.433-30.452 9.518-32.2 22.157-59.995 4.031-95.063 27.972h9.947c10.058.671 19.911 3.518 28.315 9.323 21.514 14.979 41.744 20.677 70.794 20.677l11.853-9.874c-1.181-6.53-1.8-13.256-1.8-20.126z" fill="#faef93"/></g><g><path d="m158.609 312.229c-6.571-11.382-10.918-23.435-13.192-35.66l-.005-.009c-9.425 5.441-16.841 13.688-21.613 23.468-16.807 35.289-49.941 33.488-68.341 71.756l8.614-4.973c9.045-4.448 19.002-6.909 29.183-6.084 26.121 2.215 46.49-2.965 71.647-17.49l5.328-14.477c-4.287-5.066-8.186-10.581-11.621-16.531z" fill="#faef93"/></g><g><path d="m199.771 353.391c-11.382-6.571-21.173-14.836-29.255-24.287l-.009-.006c-5.441 9.425-7.741 20.274-6.983 31.131 3.089 38.964-26.506 53.972-23.307 96.313l4.973-8.614c5.61-8.375 13.002-15.485 22.231-19.86 23.729-11.142 38.779-25.813 53.304-50.97l-2.625-15.202c-6.245-2.243-12.379-5.07-18.329-8.505z" fill="#faef93"/></g><g><path d="m256 368.458c-13.143 0-25.755-2.262-37.479-6.406h-.011c0 10.883 3.433 21.429 9.518 30.452 22.157 32.2 4.031 59.995 27.972 95.063v-9.947c.671-10.058 3.518-19.911 9.323-28.315 14.979-21.514 20.677-41.744 20.677-70.794l-9.874-11.853c-6.53 1.181-13.256 1.8-20.126 1.8z" fill="#faef93"/></g><g><path d="m312.229 353.391c-11.382 6.571-23.435 10.918-35.66 13.192l-.009.005c5.441 9.425 13.688 16.841 23.468 21.613 35.289 16.807 33.488 49.941 71.756 68.341l-4.973-8.614c-4.448-9.045-6.909-19.002-6.084-29.183 2.215-26.121-2.965-46.49-17.49-71.647l-14.477-5.328c-5.066 4.287-10.581 8.186-16.531 11.621z" fill="#faef93"/></g><g><path d="m353.391 312.229c-6.571 11.382-14.836 21.173-24.287 29.255l-.006.009c9.425 5.441 20.274 7.741 31.131 6.983 38.964-3.089 53.972 26.506 96.313 23.307l-8.614-4.973c-8.375-5.61-15.485-13.002-19.86-22.231-11.142-23.729-25.813-38.779-50.97-53.304l-15.202 2.625c-2.243 6.245-5.07 12.379-8.505 18.329z" fill="#faef93"/></g><g><path d="m368.458 256c0 13.143-2.262 25.755-6.406 37.479v.011c10.883 0 21.429-3.433 30.452-9.518 32.2-22.157 59.995-4.031 95.063-27.972h-9.947c-10.058-.671-19.911-3.518-28.315-9.323-21.514-14.979-41.744-20.677-70.794-20.677l-11.853 9.874c1.181 6.53 1.8 13.256 1.8 20.126z" fill="#faef93"/></g><g><path d="m353.391 199.771c6.571 11.382 10.918 23.435 13.192 35.66l.005.009c9.425-5.441 16.841-13.688 21.613-23.468 16.807-35.289 49.941-33.488 68.341-71.756l-8.614 4.973c-9.045 4.448-19.002 6.909-29.183 6.084-26.121-2.215-46.49 2.965-71.647 17.49l-5.328 14.477c4.287 5.066 8.186 10.581 11.621 16.531z" fill="#faef93"/></g><g><path d="m312.229 158.609c11.382 6.571 21.173 14.836 29.255 24.287l.009.006c5.441-9.425 7.741-20.274 6.983-31.131-3.089-38.964 26.506-53.972 23.307-96.313l-4.973 8.614c-5.61 8.375-13.002 15.485-22.231 19.86-23.729 11.142-38.779 25.813-53.304 50.97l2.625 15.201c6.245 2.244 12.379 5.071 18.329 8.506z" fill="#faef93"/></g><g><path d="m428.899 346.245c-19.738-6.87-34.526-19.181-58.207-19.26 7.53-12.142 13.192-25.563 16.57-39.869 1.795-.951 3.545-2 5.241-3.144 32.2-22.157 59.995-4.031 95.063-27.972h-9.947c-9.387-.626-18.595-3.15-26.614-8.203-20.75 4.801-39.749 1.131-60.169 11.357.024-1.049.04-2.099.04-3.154 0-13.448-1.975-26.433-5.639-38.688 1.079-1.72 2.068-3.503 2.964-5.34 16.807-35.288 49.941-33.488 68.341-71.756l-8.614 4.973c-8.349 4.106-17.476 6.512-26.838 6.21-15.983 13.594-34.14 20.313-45.898 41.458-13.301-25.049-34.253-45.414-59.757-57.955 11.834-16.337 25.077-27.199 43.62-35.906 1.775-.841 3.48-1.786 5.12-2.819 4.972-11.405 8.878-23.905 7.607-40.719l-4.973 8.614c-5.61 8.375-13.002 15.485-22.231 19.86-21.179 9.944-35.443 22.707-48.591 43.22-12.635-3.917-26.065-6.028-39.988-6.028-2.254 0-4.495.058-6.722.167 2.243-19.266 8.256-34.864 19.625-51.192.465-.673.904-1.359 1.332-2.05-1.248-13.783-3.557-27.976-14.234-43.616v9.947c-.671 10.058-3.518 19.911-9.323 28.315-13.369 19.201-19.33 37.398-20.461 61.735-15.889 3.582-30.709 9.977-43.926 18.62-8.266-18.463-11.09-35.402-9.355-55.861.078-.961.117-1.919.138-2.875-7.68-10.687-16.695-21.086-32.856-28.857l4.973 8.614c4.448 9.045 6.909 19.002 6.083 29.183-1.978 23.326 1.963 42.073 13.167 63.731-12.056 11.154-22.077 24.475-29.428 39.353-15.27-11.475-25.615-24.392-33.974-42.195-.914-1.927-1.953-3.769-3.091-5.537-11.887-5.336-24.801-9.727-42.489-8.39l8.614 4.973c8.375 5.61 15.485 13.002 19.86 22.231 9.945 21.18 22.708 35.444 43.222 48.592-3.917 12.635-6.03 26.063-6.03 39.986 0 2.441.088 4.861.216 7.271-18.704-2.353-33.983-8.351-49.964-19.477-1.049-.725-2.121-1.403-3.213-2.038-13.818 1.246-28.046 3.538-43.729 14.244h9.947c10.058.671 19.911 3.518 28.315 9.323 19.201 13.369 37.398 19.33 61.736 20.461 3.657 16.209 10.229 31.313 19.142 44.73-16.373 6.461-31.924 8.602-50.318 7.042-2.323-.188-4.634-.198-6.926-.059-11.386 8.009-22.613 17.112-30.871 34.287l8.614-4.973c9.046-4.448 19.002-6.909 29.183-6.084 23.325 1.979 42.073-1.963 63.73-13.167 2.075 2.242 4.219 4.419 6.44 6.516-.076 2.044-.043 4.099.1 6.153 3.089 38.964-26.506 53.972-23.307 96.313l4.973-8.614c5.267-7.863 12.106-14.611 20.561-19.027 6.774-19.823 19.141-34.578 19.431-58.105 12.098 7.478 25.462 13.103 39.702 16.466.951 1.795 2 3.545 3.144 5.241 22.157 32.2 4.031 59.995 27.972 95.063v-9.947c.606-9.085 2.996-18 7.73-25.835-4.527-20.961-.815-40.189-12.162-60.989 1.472.048 2.948.08 4.432.08 13.448 0 26.434-1.974 38.689-5.638 1.72 1.078 3.502 2.067 5.338 2.963 35.288 16.807 33.488 49.941 71.756 68.341l-4.973-8.614c-4.086-8.309-6.487-17.388-6.213-26.702-13.798-15.95-20.422-34.194-41.274-46.116 12.997-6.926 24.728-15.916 34.753-26.534 2.044.076 4.099.043 6.153-.1 38.964-3.089 53.972 26.506 96.313 23.307l-8.614-4.973c-7.866-5.265-14.614-12.105-19.031-20.562z" fill="#f8e868"/></g><g><circle cx="256" cy="256" fill="#e8ab4c" r="112.457"/></g><g><path d="m270.881 352.576c-62.108 0-112.457-50.349-112.457-112.458 0-25.815 8.704-49.594 23.33-68.575-23.425 20.609-38.211 50.804-38.211 84.457 0 62.109 50.349 112.458 112.458 112.458 36.293 0 68.565-17.198 89.127-43.883-19.808 17.426-45.791 28.001-74.247 28.001z" fill="#e1763a"/></g><g><path d="m308.5 264.47h15v15h-15z" fill="#fff"/></g><g><path d="m188.5 264.47h15v15h-15z" fill="#fff"/></g><g><path d="m497 497h15v15h-15z" fill="#e8ab4c"/></g><g><path d="m497 406.03h15v15h-15z" fill="#e8ab4c"/></g><g><path d="m0 90.97h15v15h-15z" fill="#e8ab4c"/></g><g><path d="m0 0h15v15h-15z" fill="#e8ab4c"/></g></g></g><g><path d="m236.135 271.864 19.514 15.552 20.598-15.413-8.976-12.013-11.333 8.481-10.466-8.341z"/><path d="m283.885 301.555h-56.186l-13.329-7.163-7.09 13.215 16.649 8.948h63.727l16.649-8.948-7.091-13.215z"/><path d="m300.812 211.336c-17.021 0-27.556 9.376-35.249 16.223l9.961 11.208c6.053-5.387 11.245-9.602 17.793-11.433v13.666h14.989v-13.66c6.669 1.849 11.97 6.058 17.504 10.89l9.854-11.303c-6.678-5.831-17.856-15.591-34.852-15.591z"/><path d="m218.372 241v-13.66c6.669 1.849 11.97 6.058 17.504 10.89l9.854-11.303c-6.679-5.831-17.856-15.591-34.853-15.591-17.021 0-27.556 9.376-35.249 16.223l9.961 11.208c6.053-5.387 11.245-9.602 17.793-11.433v13.666z"/><path d="m511.46 248.5h-33.953c-9.406-.664-17.577-3.353-24.269-7.979-17.822-12.418-37.013-19.222-60.706-21.313 23.976-47.008 53.902-28.286 80.928-97.63l-29.404 16.988c-8.478 4.132-16.903 5.892-25.004 5.234-21.64-1.836-41.658 1.87-63.222 11.915-2.731-52.22 32.67-52.505 21.305-125.041l-16.976 29.425c-5.277 7.82-11.691 13.557-19.039 17.043-19.658 9.237-35.143 22.464-48.798 41.953-24.035-32.867-5.079-63.02-30.34-98.891l-13.684-20.06v33.978c-.664 9.414-3.35 17.591-7.973 24.287-12.408 17.836-19.208 37.04-21.297 60.75-9.065-4.499-17.188-9.28-23.982-17.343l-11.244 9.919c10.316 13.793 27.144 17.422 38.685 29.022-14.932 4.329-28.675 11.487-40.602 20.861-2.659-1.242-5.405-2.288-8.222-3.131-12.401-22.917-16.924-42.509-15.05-64.628.447-5.51.087-11.068-1.073-16.638 6.417 6.743 11.281 14.342 16.554 21.891l12.284-8.596c-14.485-24.757-34.218-39.841-64.91-52.345l16.977 29.427c4.129 8.485 5.887 16.911 5.23 25.021-1.835 21.656 1.87 41.69 11.907 63.268-52.672 2.73-51.411-32.575-124.953-21.321l29.405 16.989c7.815 5.282 13.549 11.699 17.032 19.052 9.23 19.672 22.448 35.169 41.923 48.835-44.248 28.713-60.816-2.473-118.865 44.058h33.953c9.406.664 17.577 3.353 24.269 7.979 17.822 12.418 37.013 19.222 60.706 21.313-23.976 47.008-53.902 28.286-80.928 97.63l29.404-16.988c8.479-4.132 16.905-5.891 25.004-5.234 21.64 1.834 41.658-1.871 63.222-11.915 2.725 52.7-32.549 51.469-21.305 125.041l16.976-29.425c5.277-7.82 11.691-13.557 19.039-17.043 19.658-9.237 35.143-22.464 48.798-41.953 24.035 32.867 5.08 63.02 30.34 98.891l13.684 20.06v-33.978c.664-9.414 3.35-17.591 7.973-24.287 12.408-17.836 19.208-37.04 21.297-60.75 46.971 23.99 28.266 53.944 97.56 80.987-29.529-48.57-18.839-34.191-23.355-84.202l-14.778 2.503c3.153 13.78-.887 28.552 2.062 42.65-17.586-19.141-23.307-40.159-50.972-53.316-5.352-2.614-10.068-6.078-13.976-10.219 14.932-4.329 28.675-11.487 40.603-20.862 2.656 1.24 5.397 2.285 8.211 3.127 4.699 8.688 8.228 16.829 10.713 24.741l14.3-4.497c-1.813-5.772-4.118-11.622-6.924-17.64 52.859-2.736 50.936 32.512 124.955 21.322l-29.405-16.989c-7.815-5.282-13.549-11.699-17.032-19.052-9.23-19.672-22.448-35.169-41.923-48.835 44.248-28.714 60.816 2.472 118.865-44.059zm-93.647-89.751c5.507.446 11.061.086 16.628-1.074-5.596 5.328-11.698 9.535-17.972 13.862-12.899 8.894-26.238 18.091-35.306 37.147-2.612 5.356-6.074 10.075-10.212 13.986-4.325-14.943-11.479-28.696-20.846-40.632 1.241-2.661 2.287-5.408 3.128-8.228 22.9-12.411 42.479-16.939 64.58-15.061zm-162.021 202.208c-57.831 0-104.881-47.084-104.881-104.958s47.05-104.958 104.881-104.958 104.881 47.085 104.881 104.959-47.05 104.957-104.881 104.957zm91.724-270.249c4.992-2.368 9.623-5.46 13.862-9.249-2.184 7.414-5.365 14.109-8.638 20.996-6.727 14.157-13.683 28.796-12.016 49.837.416 5.972-.227 11.818-1.874 17.299-10.986-10.579-23.978-19.084-38.341-24.884-.256-2.909-.721-5.795-1.397-8.643 13.632-22.207 28.325-35.921 48.404-45.356zm-114.131 39.75c.711-26.053 6.582-45.283 19.257-63.501 3.139-4.548 5.605-9.543 7.383-14.946 1.813 7.513 2.404 14.903 3.01 22.505 1.247 15.626 2.537 31.785 14.493 49.172 3.331 4.943 5.687 10.303 7.002 15.847-9.211-2.277-18.835-3.494-28.739-3.494-5.73 0-11.365.414-16.884 1.196-1.672-2.388-3.516-4.653-5.522-6.779zm-142.764 33.75c-2.366-4.995-5.456-9.629-9.242-13.871 7.408 2.185 14.1 5.369 20.981 8.644 14.146 6.732 28.775 13.694 49.8 12.025 5.969-.417 11.811.227 17.287 1.875-10.572 10.994-19.07 23.996-24.866 38.369-2.907.256-5.792.722-8.637 1.399-22.192-13.643-35.895-28.347-45.323-48.441zm-38.668 87.555c7.507-1.814 14.892-2.404 22.488-3.012 15.615-1.249 31.762-2.54 49.137-14.505 4.939-3.333 10.295-5.691 15.835-7.007-2.275 9.218-3.491 18.849-3.491 28.76 0 5.734.413 11.373 1.195 16.896-2.387 1.675-4.651 3.52-6.775 5.528-26.035-.711-45.251-6.587-63.455-19.271-4.545-3.142-9.536-5.609-14.934-7.389zm41.819 101.488c-5.506-.445-11.061-.087-16.628 1.074 5.596-5.328 11.698-9.535 17.972-13.862 12.899-8.894 26.238-18.091 35.306-37.147 2.612-5.356 6.074-10.075 10.212-13.986 4.325 14.943 11.479 28.696 20.846 40.632-1.241 2.661-2.287 5.408-3.128 8.227-22.902 12.411-42.483 16.937-64.58 15.062zm70.296 68.04c-4.992 2.368-9.623 5.46-13.862 9.249 2.184-7.414 5.365-14.109 8.638-20.996 6.727-14.157 13.683-28.796 12.016-49.837-.416-5.972.227-11.818 1.874-17.299 10.986 10.579 23.978 19.084 38.341 24.885.256 2.909.721 5.795 1.397 8.643-13.632 22.207-28.325 35.92-48.404 45.355zm114.131-39.75c-.71 26.053-6.582 45.283-19.257 63.501-3.139 4.548-5.605 9.543-7.383 14.946-1.813-7.513-2.404-14.903-3.01-22.505-1.247-15.626-2.537-31.785-14.493-49.172-3.331-4.943-5.687-10.303-7.002-15.847 9.211 2.277 18.835 3.494 28.739 3.494 5.73 0 11.366-.414 16.884-1.196 1.672 2.388 3.516 4.654 5.522 6.779zm142.764-33.75c2.366 4.995 5.456 9.629 9.242 13.871-7.408-2.185-14.1-5.369-20.981-8.644-14.146-6.731-28.773-13.692-49.8-12.025-5.97.417-11.812-.227-17.287-1.875 10.572-10.994 19.07-23.996 24.866-38.369 2.907-.256 5.792-.722 8.637-1.399 22.192 13.643 35.895 28.348 45.323 48.441zm16.179-84.543c-15.615 1.249-31.762 2.54-49.137 14.505-4.939 3.333-10.295 5.691-15.835 7.007 2.275-9.218 3.491-18.849 3.491-28.76 0-5.734-.413-11.373-1.195-16.896 2.387-1.675 4.651-3.52 6.775-5.528 26.035.711 45.251 6.587 63.455 19.271 4.546 3.142 9.537 5.609 14.934 7.389-7.506 1.815-14.892 2.405-22.488 3.012z"/><path d="m113.517 118.254h14.995v14.994h-14.995z" transform="matrix(.695 -.719 .719 .695 -53.507 125.383)"/><path d="m66.494 203.144h15v14.99h-15z" transform="matrix(.242 -.97 .97 .242 -148.293 231.439)"/><path d="m68.192 300.182h14.99v14.999h-14.99z" transform="matrix(.961 -.276 .276 .961 -81.933 32.814)"/><path d="m118.141 383.378h14.995v14.995h-14.995z" transform="matrix(.694 -.72 .72 .694 -242.879 209.868)"/><path d="m202.965 430.435h14.999v14.99h-14.999z" transform="matrix(.242 -.97 .97 .242 -265.39 536.117)"/><path d="m299.942 428.737h14.989v14.999h-14.989z" transform="matrix(.961 -.276 .276 .961 -108.276 101.569)"/><path d="m383.073 378.751h14.995v14.994h-14.995z" transform="matrix(.695 -.719 .719 .695 -158.591 398.688)"/><path d="m430.091 293.865h15v14.99h-15z" transform="matrix(.242 -.97 .97 .242 39.259 652.978)"/><path d="m428.403 196.818h14.99v14.999h-14.99z" transform="matrix(.961 -.276 .276 .961 -39.447 128.163)"/><path d="m378.448 113.626h14.995v14.995h-14.995z" transform="matrix(.694 -.72 .72 .694 30.79 314.746)"/><path d="m293.62 66.574h14.999v14.99h-14.999z" transform="matrix(.242 -.97 .97 .242 156.356 348.3)"/><path d="m196.654 68.264h14.989v14.999h-14.989z" transform="matrix(.961 -.276 .276 .961 -12.972 59.169)"/><path d="m465.661 435.978h-14.989v15h-14.989v15h14.989v15h14.989v-15h14.989v-15h-14.989z"/><path d="m46.339 74.948h14.989v-15h14.989v-15h-14.989v-15h-14.989v15h-14.989v15h14.989z"/></g></g></svg>