<svg height="512pt" viewBox="-21 0 512 512" width="512pt" xmlns="http://www.w3.org/2000/svg"><path d="m469.722656 512h-272.898437v-382.421875h272.898437zm0 0" fill="#e681fa"/><path d="m469.722656 512h-137.609375v-382.421875h137.613281v382.421875zm0 0" fill="#c567ea"/><path d="m332.921875 407.496094c-46.816406 0-84.90625-38.089844-84.90625-84.90625s38.089844-84.90625 84.90625-84.90625 84.90625 38.089844 84.90625 84.90625-38.089844 84.90625-84.90625 84.90625zm0 0" fill="#54489b"/><path d="m417.828125 322.589844c0-46.816406-38.089844-84.90625-84.90625-84.90625-.054687 0-.105469 0-.160156 0v169.8125h.160156c46.816406 0 84.90625-38.089844 84.90625-84.90625zm0 0" fill="#463d83"/><path d="m356.855469 355.632812-23.933594-7.746093-23.9375 7.746093-.027344-25.15625-14.761719-20.367187 23.914063-7.804687 14.8125-20.332032 14.808594 20.332032 23.914062 7.804687-14.761719 20.367187zm0 0" fill="#fdda50"/><path d="m347.730469 302.304688-14.808594-20.332032-.160156.21875v65.746094l.160156-.050781 23.933594 7.746093.027343-25.15625 14.761719-20.367187zm0 0" fill="#fabe3d"/><path d="m196.824219 203.773438c40.976562 0 74.195312-33.214844 74.195312-74.195313h-74.195312zm0 0" fill="#fdda50"/><path d="m469.722656 203.773438v-74.195313h-74.09375c0 40.945313 33.164063 74.140625 74.09375 74.195313zm0 0" fill="#fabe3d"/><path d="m196.824219 439.382812v72.617188h74.152343c-.839843-40.246094-33.707031-72.617188-74.152343-72.617188zm0 0" fill="#fdda50"/><path d="m395.667969 512h74.058593v-72.613281c-40.402343.054687-73.214843 32.402343-74.058593 72.613281zm0 0" fill="#fabe3d"/><path d="m272.902344 382.421875h-272.902344v-382.421875h272.902344zm0 0" fill="#e681fa"/><path d="m272.902344 382.421875h-137.613282v-382.421875h137.613282zm0 0" fill="#c567ea"/><path d="m136.097656 277.917969c-46.816406 0-84.90625-38.089844-84.90625-84.90625 0-46.820313 38.089844-84.910157 84.90625-84.910157s84.90625 38.089844 84.90625 84.910157c0 46.816406-38.089844 84.90625-84.90625 84.90625zm0 0" fill="#54489b"/><path d="m221.003906 193.011719c0-46.820313-38.089844-84.90625-84.90625-84.90625-.050781 0-.105468 0-.160156 0v169.8125h.160156c46.816406 0 84.90625-38.089844 84.90625-84.90625zm0 0" fill="#463d83"/><path d="m160.03125 226.054688-23.933594-7.746094-23.933594 7.746094-.03125-25.15625-14.761718-20.371094 23.917968-7.800782 14.808594-20.332031 14.808594 20.332031 23.914062 7.800782-14.761718 20.371094zm0 0" fill="#fdda50"/><path d="m150.90625 172.726562-14.808594-20.332031-.160156.21875v65.746094l.160156-.050781 23.933594 7.746094.027344-25.15625 14.761718-20.371094zm0 0" fill="#fabe3d"/><path d="m0 74.195312c40.976562 0 74.195312-33.21875 74.195312-74.195312h-74.195312zm0 0" fill="#fdda50"/><path d="m272.902344 74.191406v-74.191406h-74.097656c0 40.945312 33.164062 74.140625 74.097656 74.191406zm0 0" fill="#fabe3d"/><path d="m0 309.804688v72.617187h74.15625c-.84375-40.246094-33.710938-72.617187-74.15625-72.617187zm0 0" fill="#fdda50"/><path d="m198.84375 382.421875h74.058594v-72.613281c-40.402344.050781-73.214844 32.398437-74.058594 72.613281zm0 0" fill="#fabe3d"/></svg>