<?xml version="1.0" standalone="no"?>
<!DOCTYPE svg PUBLIC "-//W3C//DTD SVG 20010904//EN"
 "http://www.w3.org/TR/2001/REC-SVG-20010904/DTD/svg10.dtd">
<svg version="1.0" xmlns="http://www.w3.org/2000/svg"
 width="500.000000pt" height="500.000000pt" viewBox="0 0 500.000000 500.000000"
 preserveAspectRatio="xMidYMid meet">
<metadata>
Created by potrace 1.16, written by Peter Selinger 2001-2019
</metadata>
<g transform="translate(0.000000,500.000000) scale(0.100000,-0.100000)"
fill="#000000" stroke="none">
<path d="M893 2884 c-97 -25 -218 -99 -291 -178 -49 -54 -62 -82 -62 -138 0
-62 58 -114 183 -162 94 -36 173 -84 183 -110 18 -47 -85 -131 -227 -186 -150
-58 -175 -32 -77 79 21 24 38 48 38 52 0 14 -79 10 -108 -5 -63 -33 -142 -145
-142 -201 0 -14 7 -36 15 -49 48 -73 176 -55 400 54 113 55 202 128 233 191
l21 41 19 -38 c25 -49 57 -79 104 -99 95 -39 182 6 243 125 l18 35 9 -25 c30
-82 105 -80 181 5 18 20 18 19 13 -15 -3 -19 -9 -87 -12 -150 -6 -108 -5 -117
16 -142 14 -19 31 -28 51 -28 29 0 29 0 29 60 0 52 32 227 74 404 22 94 -9
132 -88 106 -27 -9 -37 -19 -47 -48 -19 -59 -59 -132 -74 -139 -23 -8 -65 24
-65 51 0 13 7 43 15 67 20 56 14 69 -30 69 -31 0 -38 -5 -49 -30 l-13 -31 -11
39 c-14 48 -89 125 -151 157 -70 35 -114 37 -109 4 2 -15 17 -27 52 -40 27
-10 60 -28 74 -41 32 -30 62 -94 62 -136 0 -42 -39 -118 -80 -157 l-32 -30
-20 25 c-17 21 -19 34 -15 78 8 76 27 102 71 95 68 -11 65 56 -4 92 -71 37
-145 -1 -191 -98 -16 -34 -29 -69 -29 -78 0 -29 -13 -29 -31 0 -24 39 -120
104 -235 157 -98 46 -119 67 -108 109 13 54 173 165 236 165 15 0 38 4 53 10
l26 10 -20 39 c-11 21 -26 41 -33 43 -7 3 -37 -1 -65 -8z"/>
<path d="M4210 2833 c0 -162 -24 -406 -55 -562 -14 -66 -14 -77 0 -98 19 -28
39 -29 110 -2 46 17 55 24 55 45 0 13 2 24 5 24 3 0 31 -21 62 -46 32 -26 76
-55 98 -65 44 -21 130 -25 141 -8 9 15 -38 52 -117 91 l-65 33 33 43 c50 66
43 126 -18 157 -37 20 -60 13 -112 -34 l-40 -36 7 193 7 193 -39 39 c-36 36
-72 52 -72 33z"/>
<path d="M2074 2782 c7 -54 -5 -149 -55 -431 -24 -135 -29 -178 -20 -197 13
-30 53 -32 97 -5 30 18 31 22 43 127 14 126 36 232 61 289 23 52 68 97 94 93
20 -3 21 -9 21 -153 -1 -82 -7 -199 -15 -259 l-13 -109 23 -19 c22 -18 23 -18
64 6 41 24 41 25 54 108 20 137 62 347 74 373 28 61 47 8 54 -144 12 -276 53
-351 192 -351 39 0 62 4 62 11 0 6 -22 35 -48 64 l-48 53 -13 113 c-22 207
-58 345 -99 382 -18 16 -23 17 -53 4 -19 -8 -45 -26 -58 -41 -14 -14 -27 -26
-30 -26 -3 0 -16 19 -29 43 -12 24 -36 51 -52 60 -26 16 -33 16 -62 4 -18 -8
-49 -31 -67 -51 -19 -20 -38 -36 -41 -36 -3 0 -14 17 -23 38 -19 44 -62 87
-96 97 -24 7 -24 6 -17 -43z"/>
<path d="M3950 2542 l34 -29 -18 -81 c-16 -68 -17 -87 -7 -129 15 -58 59 -158
67 -150 9 8 43 141 68 262 21 100 21 111 7 122 -23 17 -93 33 -143 33 l-42 0
34 -28z"/>
<path d="M3349 2553 c-1 -5 0 -35 1 -69 1 -33 -6 -99 -15 -147 -27 -134 -10
-162 81 -132 56 19 84 46 84 81 0 14 7 40 14 59 23 55 49 47 131 -39 38 -41
86 -82 105 -92 35 -17 122 -25 135 -12 4 4 -15 33 -42 65 -28 32 -67 84 -87
115 -83 127 -151 148 -235 72 l-39 -34 -22 45 c-12 24 -35 56 -52 70 -29 24
-57 33 -59 18z"/>
<path d="M3080 2521 c-49 -15 -131 -62 -170 -97 -97 -88 -84 -223 23 -241 33
-5 86 15 198 75 4 1 19 -18 33 -43 15 -25 34 -45 42 -45 20 0 41 54 61 151 12
61 13 82 4 93 -19 23 -47 8 -132 -70 -66 -61 -87 -74 -114 -74 -47 0 -53 25
-18 74 34 48 86 84 168 116 77 30 85 37 61 56 -21 15 -113 18 -156 5z"/>
</g>
</svg>
